   Belle Epoque (The Age of Beauty) 1992 DVDRip(Dual Audio) Xvid fasamoo LKRG

RIPPER                           : fasamoo
Format                           : AVI
Format/Info                      : Audio Video Interleave
File size                        : 800 MiB
Duration                         : 1h 49mn
Overall bit rate                 : 1 021 Kbps
Writing application              : VirtualDubMod 1.5.4.1 (build 2178/release)
Writing library                  : VirtualDubMod build 2178/release
Language                         : Spanish;English(Dual Audio)
Subtitles                        : English(*.srt)
                                   English;Spanish(*.idx;*.sub)
Genre                            : Comedy | Drama | Romance

Video
ID                               : 0
Format                           : MPEG-4 Visual
Format profile                   : Advanced Simple@L5
Format settings, BVOP            : Yes
Format settings, QPel            : No
Format settings, GMC             : No warppoints
Format settings, Matrix          : Custom
Codec ID                         : XVID
Codec ID/Hint                    : XviD
Duration                         : 1h 49mn
Bit rate                         : 777 Kbps
Width                            : 560 pixels
Height                           : 240 pixels
Display aspect ratio             : 2.35:1
Frame rate                       : 23.976 fps
Color space                      : YUV
Chroma subsampling               : 4:2:0
Bit depth                        : 8 bits
Scan type                        : Progressive
Bits/(Pixel*Frame)               : 0.241
Stream size                      : 609 MiB (76%)
Writing library                  : XviD 1.2.1 (UTC 2008-12-04)

Audio #1
ID                               : 1
Format                           : MPEG Audio
Format version                   : Version 1
Format profile                   : Layer 3
Mode                             : Joint stereo
Mode extension                   : MS Stereo
Codec ID                         : 55
Codec ID/Hint                    : MP3
Duration                         : 1h 49mn
Bit rate mode                    : Variable
Bit rate                         : 113 Kbps
Nominal bit rate                 : 128 Kbps
Channel(s)                       : 2 channels
Sampling rate                    : 48.0 KHz
Stream size                      : 88.4 MiB (11%)
Alignment                        : Aligned on interleaves
Interleave, duration             : 24 ms (0.58 video frame)
Interleave, preload duration     : 163 ms
Writing library                  : LAME3.98r
Encoding settings                : -m j -V 4 -q 2 -lowpass 17 --abr 128
Language                         : Spanish

Audio #2
ID                               : 2
Format                           : MPEG Audio
Format version                   : Version 1
Format profile                   : Layer 3
Mode                             : Joint stereo
Mode extension                   : MS Stereo
Codec ID                         : 55
Codec ID/Hint                    : MP3
Duration                         : 1h 49mn
Bit rate mode                    : Variable
Bit rate                         : 111 Kbps
Nominal bit rate                 : 128 Kbps
Channel(s)                       : 2 channels
Sampling rate                    : 48.0 KHz
Stream size                      : 86.7 MiB (11%)
Alignment                        : Aligned on interleaves
Interleave, duration             : 24 ms (0.58 video frame)
Interleave, preload duration     : 166 ms
Writing library                  : LAME3.98r
Encoding settings                : -m j -V 4 -q 2 -lowpass 17 --abr 128
Language                         : English


                                 PLOT


In 1931, a young soldier (Fernando) deserts from the army and falls into a country farm, where he is welcomed by the owner (Manolo) due to his political ideas. Manolo has four daughters (Rocio, Violeta, Clara and Luz). Fernando likes all of them and they like him, so he has to decide which one to love.  

  







                                 IMBD
                     
                    http://www.imdb.com/title/tt0103791/
 
http://leetleech.org/images/28821334723891389879.png 
http://leetleech.org/images/83665564025364127800.png 
http://leetleech.org/images/36203186938677044901.png 
http://leetleech.org/images/37142356572358145984.png
